<?xml version="1.0" encoding="utf-8"?>
<!-- Generator: Adobe Illustrator 23.0.0, SVG Export Plug-In . SVG Version: 6.00 Build 0)  -->
<svg version="1.1" id="Layer_1" xmlns="http://www.w3.org/2000/svg" xmlns:xlink="http://www.w3.org/1999/xlink" x="0px" y="0px"
	 viewBox="0 0 1200 250" style="enable-background:new 0 0 1200 250;" xml:space="preserve">
<style type="text/css">
	.st0{fill:#23CF5F;}
	.st1{fill:#2C3038;}
</style>
<g>
	<g>
		<g>
			<path class="st0" d="M123.91,50.95c36.26,0,66.5,26.21,72.82,60.67h37.09c-6.63-54.78-53.38-97.37-109.91-97.37
				S20.63,56.84,14,111.62h37.09C57.41,77.16,87.65,50.95,123.91,50.95z"/>
			<path class="st0" d="M123.91,199.05c-36.26,0-66.5-26.21-72.82-60.67H14c6.63,54.78,53.38,97.37,109.91,97.37
				s103.28-42.59,109.91-97.37h-37.09C190.41,172.84,160.17,199.05,123.91,199.05z"/>
			<path class="st0" d="M64.2,129.63h4.63c3.24,0,5.9-2.37,5.9-5.27c0-1.16-0.44-2.23-1.16-3.1c-0.95-1.38-2.64-2.3-4.58-2.3h-5.3
				c-2.98,0-5.39,2.16-5.39,4.81c0,0.1,0.03,0.2,0.03,0.3c-0.01,0.1-0.03,0.19-0.03,0.29C58.3,127.26,60.96,129.63,64.2,129.63z"/>
			<path class="st0" d="M70.14,151.91h21.03c8.86,12.15,23.54,19.77,39.96,18.71c22.63-1.47,41.02-19.76,42.58-42.38
				c1.84-26.7-19.29-48.95-45.62-48.95c-14.88,0-28.09,7.12-36.44,18.11H76.53c-2.81,0-5.33,2.06-5.59,4.86
				c-0.31,3.21,2.21,5.92,5.36,5.92h19.73c2.82,0,5.34,2.06,5.61,4.86c0.31,3.22-2.21,5.92-5.36,5.92h-11.4
				c-0.75,0-1.47,0.16-2.12,0.43c-1.91,0.83-3.26,2.74-3.26,4.95c0,1.48,0.6,2.83,1.57,3.81c0.45,0.43,0.96,0.8,1.52,1.05
				c0.64,0.31,1.35,0.5,2.1,0.51c0.07,0.01,0.13,0.01,0.2,0.01h15.43c1.38,0.07,2.62,0.66,3.54,1.56c1.04,1.06,1.66,2.53,1.56,4.16
				c-0.18,2.88-2.73,5.04-5.61,5.04H85.09c0,0,0,0,0,0H69.87c-3.33,0-6.02,2.89-5.68,6.29C64.49,149.75,67.16,151.91,70.14,151.91z
				 M108.18,127.99c0-0.44,0.35-0.79,0.79-0.79h3.56c-0.05-0.73-0.09-1.45-0.09-2.2c0-0.59,0.03-1.18,0.05-1.77h-3.25
				c-0.59,0-1.06-0.47-1.06-1.06v-5.93c0-0.51,0.41-0.92,0.92-0.92h4.96c4.04-11.76,15.19-20.22,28.28-20.22h8.3l-2.25,9.83h-6.04
				c-7.56,0-14.15,4.21-17.58,10.39h21.57l-1.8,7.9h-22.18c-0.05,0.59-0.09,1.17-0.09,1.77c0,0.75,0.05,1.48,0.13,2.2h21.22
				l-1.81,7.9h-16.79c3.49,5.95,9.93,9.96,17.31,9.96h6.71l2.2,9.83h-8.91c-12.94,0-23.98-8.27-28.14-19.79h-5
				c-0.56,0-1.01-0.45-1.01-1.01V127.99z"/>
		</g>
	</g>
	<g>
		<path class="st1" d="M398.43,165.81c-12.68,12.46-26.02,17.35-42.26,17.35c-31.81,0-58.27-19.13-58.27-58.05
			c0-38.92,26.47-58.05,58.27-58.05c15.57,0,27.58,4.45,39.59,16.24l-17.13,18.02c-6.45-5.78-14.46-8.67-22.02-8.67
			c-18.24,0-31.58,13.35-31.58,32.47c0,20.91,14.24,32.03,31.14,32.03c8.67,0,17.35-2.45,24.02-9.12L398.43,165.81z"/>
		<path class="st1" d="M490.73,70.17h26.02v109.66h-25.58l-1.33-16.01c-6.23,12.9-23.35,19.13-35.59,19.35
			c-32.47,0.22-56.5-19.8-56.5-58.28c0-37.81,25.13-57.61,57.16-57.38c14.68,0,28.69,6.89,34.92,17.79L490.73,70.17z M424.89,124.89
			c0,20.91,14.46,33.36,32.47,33.36c42.71,0,42.71-66.5,0-66.5C439.35,91.75,424.89,103.98,424.89,124.89z"/>
		<path class="st1" d="M558.12,70.17l2,12.68c8.45-13.57,19.8-15.57,30.92-15.57c11.34,0,22.24,4.45,28.25,10.45l-12.23,23.58
			c-5.56-4.67-10.68-7.12-19.57-7.12c-14.24,0-27.36,7.56-27.36,27.8v57.83h-27.14V70.17H558.12z"/>
		<path class="st1" d="M731.83,125.11c0,31.58-21.57,57.16-57.16,57.16c-35.59,0-56.94-25.58-56.94-57.16
			c0-31.36,21.8-57.16,56.72-57.16C709.36,67.95,731.83,93.75,731.83,125.11z M644.86,125.11c0,16.68,10.01,32.25,29.8,32.25
			c19.8,0,29.8-15.57,29.8-32.25c0-16.46-11.57-32.47-29.8-32.47C655.09,92.64,644.86,108.65,644.86,125.11z"/>
		<path class="st1" d="M852.82,125.11c0,31.58-21.57,57.16-57.16,57.16c-35.59,0-56.94-25.58-56.94-57.16
			c0-31.36,21.8-57.16,56.72-57.16S852.82,93.75,852.82,125.11z M765.86,125.11c0,16.68,10.01,32.25,29.8,32.25
			c19.8,0,29.8-15.57,29.8-32.25c0-16.46-11.57-32.47-29.8-32.47C776.09,92.64,765.86,108.65,765.86,125.11z"/>
		<path class="st1" d="M945.13,70.17v12.9l-50.49,70.06h50.94v26.69h-92.31v-11.34l52.49-73.62h-48.49V70.17H945.13z"/>
		<path class="st1" d="M978.26,134.67c1.78,13.57,13.57,23.35,32.7,23.35c10.01,0,23.13-3.78,29.36-10.23l17.35,17.13
			c-11.56,12.01-30.47,17.79-47.15,17.79c-37.81,0-60.28-23.35-60.28-58.5c0-33.36,22.69-57.38,58.27-57.38
			c36.7,0,59.61,22.69,55.38,67.84H978.26z M1037.87,112.21c-1.78-14.24-12.9-21.35-28.47-21.35c-14.68,0-26.69,7.12-30.69,21.35
			H1037.87z"/>
		<path class="st1" d="M1158.86,179.83v-57.39c0-16.68-9.12-29.36-26.47-29.36c-16.68,0-28.02,14.01-28.02,30.69v56.05h-26.91V69.95
			h24.24l1.78,14.9c11.12-10.9,22.24-16.46,36.03-16.46c25.8,0,46.49,19.35,46.49,53.83v57.61H1158.86z"/>
	</g>
</g>
</svg>
