<?xml version="1.0" encoding="utf-8"?>
<!-- Generator: Adobe Illustrator 24.0.1, SVG Export Plug-In . SVG Version: 6.00 Build 0)  -->
<svg version="1.1" id="Layer_1" xmlns="http://www.w3.org/2000/svg" xmlns:xlink="http://www.w3.org/1999/xlink" x="0px" y="0px"
	 viewBox="0 0 512 512" style="enable-background:new 0 0 512 512;" xml:space="preserve">
<style type="text/css">
	.st0{fill:#C7F9D7;}
	.st1{fill:#23CF5F;}
	.st2{fill:#FFFFFF;}
</style>
<g>
	<g>
		<path class="st0" d="M469.69,390.93H40.35c-12.58,0-22.78-10.2-22.78-22.78V118.89c0-12.58,10.2-22.78,22.78-22.78h429.34
			c12.58,0,22.78,10.2,22.78,22.78v249.27C492.47,380.74,482.27,390.93,469.69,390.93z"/>
		<path class="st1" d="M469.69,394.24H40.35c-14.38,0-26.08-11.7-26.08-26.08V118.89c0-14.38,11.7-26.08,26.08-26.08h429.34
			c14.38,0,26.08,11.7,26.08,26.08v249.27C495.77,382.54,484.07,394.24,469.69,394.24z M40.35,99.42
			c-10.74,0-19.47,8.73-19.47,19.47v249.27c0,10.74,8.74,19.47,19.47,19.47h429.34c10.74,0,19.47-8.73,19.47-19.47V118.89
			c0-10.74-8.73-19.47-19.47-19.47H40.35z"/>
	</g>
	<g>
		<circle class="st0" cx="400.24" cy="371.61" r="94.18"/>
		<path class="st1" d="M400.24,469.1c-53.76,0-97.49-43.73-97.49-97.49s43.73-97.49,97.49-97.49s97.49,43.73,97.49,97.49
			S454,469.1,400.24,469.1z M400.24,280.74c-50.11,0-90.88,40.77-90.88,90.88s40.77,90.88,90.88,90.88s90.88-40.77,90.88-90.88
			S450.35,280.74,400.24,280.74z"/>
	</g>
	<g>
		<path class="st1" d="M382.08,432.99c-0.08,0-0.16,0-0.24,0c-2.67-0.06-5.19-1.21-6.99-3.18l-42.56-46.43
			c-3.66-3.99-3.39-10.2,0.6-13.86c3.99-3.66,10.2-3.39,13.86,0.6l35.67,38.91l75.56-74.85c3.84-3.81,10.06-3.78,13.87,0.07
			c3.81,3.85,3.78,10.06-0.07,13.87l-82.8,82.03C387.14,431.97,384.66,432.99,382.08,432.99z"/>
	</g>
	<g>
		<rect x="212.93" y="141.69" class="st1" width="248.63" height="24.13"/>
	</g>
	<g>
		<rect x="212.93" y="186.49" class="st1" width="248.63" height="24.13"/>
	</g>
	<g>
		<rect x="212.93" y="231.29" class="st1" width="124.32" height="24.13"/>
	</g>
	<g>
		<g>
			<path class="st2" d="M117.38,196.92L117.38,196.92c0-1.31,0.93-2.42,2.2-2.69c11.94-2.54,20.7-13.64,19.54-26.58
				c-1.04-11.62-10.3-21.1-21.9-22.38c-14.98-1.66-27.67,10.03-27.67,24.68c0,11.93,8.42,21.9,19.64,24.28
				c1.28,0.27,2.21,1.38,2.21,2.69v0c0,1.52-1.23,2.74-2.74,2.74h0c-18.98,0-34.37,15.39-34.37,34.37v36.7h80.19v-36.7
				c0-18.98-15.39-34.37-34.37-34.37h0C118.61,199.66,117.38,198.43,117.38,196.92z"/>
			<path class="st1" d="M154.49,274.38H74.3c-2.02,0-3.65-1.63-3.65-3.65v-36.7c0-19.27,14.41-35.24,33.03-37.69
				c-10.53-4.3-17.77-14.71-17.77-26.39c0-8.09,3.46-15.83,9.49-21.23c6.02-5.4,14.13-7.98,22.23-7.08
				c13.36,1.48,23.93,12.28,25.13,25.68c1.14,12.69-6.23,24.38-17.64,29.01c18.61,2.46,33.02,18.42,33.02,37.69v36.7
				C158.14,272.74,156.5,274.38,154.49,274.38z M77.95,267.08h72.89v-33.05c0-16.94-13.78-30.71-30.71-30.71
				c-2.51,0-4.68-1.45-5.73-3.55c-1.05,2.1-3.22,3.55-5.73,3.55c-16.94,0-30.71,13.78-30.71,30.71V267.08z M114.37,148.76
				c-5.23,0-10.17,1.87-14.1,5.4c-4.49,4.02-7.06,9.77-7.06,15.79c0,9.94,7.04,18.65,16.75,20.71c1.97,0.42,3.58,1.73,4.43,3.44
				c0.85-1.71,2.46-3.02,4.43-3.44c10.46-2.22,17.63-11.98,16.66-22.68c-0.89-9.96-8.74-17.98-18.66-19.08
				C116,148.81,115.18,148.76,114.37,148.76z"/>
		</g>
		<g>
			<path class="st1" d="M165.68,274.62H63.11c-13.66,0-24.78-11.12-24.78-24.78V147.27c0-13.66,11.12-24.78,24.78-24.78h102.57
				c13.66,0,24.78,11.12,24.78,24.78v102.57C190.46,263.5,179.34,274.62,165.68,274.62z M63.11,129.1
				c-10.02,0-18.17,8.15-18.17,18.17v102.57c0,10.02,8.15,18.17,18.17,18.17h102.57c10.02,0,18.17-8.15,18.17-18.17V147.27
				c0-10.02-8.15-18.17-18.17-18.17H63.11z"/>
		</g>
	</g>
</g>
</svg>
